<?xml version="1.0" encoding="UTF-8" standalone="no"?>
<!-- Created with Inkscape (http://www.inkscape.org/) -->

<svg
   width="512mm"
   height="512mm"
   viewBox="0 0 512 512"
   version="1.1"
   id="svg1"
   xml:space="preserve"
   inkscape:export-filename="avatar.png"
   inkscape:export-xdpi="25.4"
   inkscape:export-ydpi="25.4"
   inkscape:version="1.4 (e7c3feb100, 2024-10-09)"
   sodipodi:docname="avatar.svg"
   xmlns:inkscape="http://www.inkscape.org/namespaces/inkscape"
   xmlns:sodipodi="http://sodipodi.sourceforge.net/DTD/sodipodi-0.dtd"
   xmlns="http://www.w3.org/2000/svg"
   xmlns:svg="http://www.w3.org/2000/svg"><sodipodi:namedview
     id="namedview1"
     pagecolor="#ffffff"
     bordercolor="#000000"
     borderopacity="0.25"
     inkscape:showpageshadow="2"
     inkscape:pageopacity="0.0"
     inkscape:pagecheckerboard="0"
     inkscape:deskcolor="#d1d1d1"
     inkscape:document-units="mm"
     inkscape:zoom="0.37282197"
     inkscape:cx="662.5146"
     inkscape:cy="1031.3233"
     inkscape:window-width="2560"
     inkscape:window-height="1016"
     inkscape:window-x="0"
     inkscape:window-y="0"
     inkscape:window-maximized="1"
     inkscape:current-layer="layer1"
     inkscape:export-bgcolor="#ffffffff" /><defs
     id="defs1" /><g
     inkscape:label="Layer 1"
     inkscape:groupmode="layer"
     id="layer1"><g
       style="fill:none"
       id="g1"
       transform="matrix(0.26458333,0,0,0.26458333,130.03507,77.929891)"><path
         fill-rule="evenodd"
         clip-rule="evenodd"
         d="m 365,1.59581 c -23.926,3.05 -41.089,8.14298 -63.5,18.84299 -14.517,6.93 -25.709,13.873 -42,26.054 -27.246,20.373 -42.221,37.287 -65.966,74.5082 -6.491,10.175 -13.243,20.75 -15.003,23.5 -6.604,10.317 -13.701,23.444 -18.142,33.555 -2.523,5.745 -4.82,10.67 -5.105,10.945 -2.296,2.218 5.203,-20.928 15.876,-49 8.43,-22.172 15.415,-36.357 27.056,-54.9462 3.815,-6.091 3.508,-6.698 -1.548,-3.067 -13.918,9.995 -51.312,54.4022 -63.594,75.5222 -3.516,6.045 -7.779,13.016 -9.473,15.491 -7.449,10.882 -28.8697,49.858 -42.0436,76.5 -30.536,61.753 -43.8291,89.133 -47.0491,96.912 -5.79,13.99 -10.0309,33.488 -14.5919,67.088 -2.345,17.269 -2.219,25.693 0.617,41.5 1.933,10.769 0.8189,22.032 -4.0041,40.5 -1.867,7.15 -5.876,22.45 -8.90896,34 -9.65201,36.756 -9.66901,40.022 -0.34601,67 9.12597,26.408 16.42107,49.373 19.22007,60.5 1.452,5.775 3.707,14.775 5.01,20 2.061,8.265 4.3729,21.258 8.6289,48.5 1.456,9.323 2.483,11.522 10.039,21.5 6.568,8.673 12.544,19.451 19.683,35.5 3.456,7.769 4.084,10.299 4.591,18.5 3.416,55.24 9.6331,99.059 21.5791,152.107 3.888,17.266 11.1046,50.072 16.0366,72.892 10.671,49.38 14.847,65.65 22.983,89.56 15.289,44.92 26.597,60.58 86.811,120.23 46.913,46.48 64.766,63.4 78.149,74.09 27.776,22.18 43.707,29.22 68.995,30.49 6.325,0.32 17.8,1.51 25.5,2.65 20.406,3.01 51.917,3.78 65,1.58 24.115,-4.05 39.449,-9.36 68.69,-23.78 12.063,-5.95 22.156,-10.82 22.429,-10.82 0.684,0 28.104,-15.19 37.881,-20.99 24.884,-14.75 71.959,-44.16 102.883,-64.28 12.585,-8.18 26.535,-17.16 31,-19.94 18.586,-11.57 53.55,-39.75 63.843,-51.46 12.147,-13.8 18.822,-27.76 23.613,-49.38 7.603,-34.3 12.198,-81.17 10.388,-105.949 l -0.767,-10.5 -0.751,13.499 c -1.485,26.72 -4.817,53.12 -9.846,78 -9.197,45.5 -15.167,57.53 -39.098,78.8 -22.143,19.67 -41.439,34.16 -57.983,43.52 -5.346,3.02 -19.071,11.97 -30.5,19.89 -11.43,7.91 -27.532,18.36 -35.782,23.23 -8.25,4.87 -25.8,15.26 -39,23.1 -33.544,19.92 -48.218,27.91 -77.318,42.06 -32.345,15.74 -45.719,20.62 -68.682,25.06 -14.243,2.76 -49.96,2.52 -72,-0.47 -27.085,-3.67 -33.567,-5 -44.188,-9.02 -12.375,-4.7 -16.484,-7.09 -31.222,-18.18 -18.164,-13.68 -28.174,-23.02 -78.167,-72.96 -55.025,-54.97 -67.1,-69.2 -78.52,-92.53 -6.576,-13.43 -16.139,-42.12 -20.34,-61 -1.713,-7.7 -3.786,-15.8 -4.607,-18 -0.822,-2.2 -3.49,-13.67 -5.93,-25.5 -2.439,-11.82 -5.742,-27.35 -7.339,-34.5 -1.596,-7.149 -6.323,-28.299 -10.504,-46.999 -16.1007,-72.027 -24.2787,-125.547 -26.6607,-174.5 -1.457,-29.935 -1.704,-32.912 -2.844,-34.287 -1.823,-2.201 -3.2169,-16.73 -2.5359,-26.424 l 0.6629,-9.423 11.885,-11.683 c 16.3217,-16.044 16.6017,-16.159 43.2617,-17.773 11.577,-0.701 35.898,-1.767 54.048,-2.368 36.43,-1.208 58.112,-2.595 63.591,-4.068 1.975,-0.531 4.262,-1.755 5.081,-2.72 2.809,-3.307 6.559,-10.755 7.2,-14.299 1.37,-7.568 -4.89,-20.017 -12.216,-24.296 -3.054,-1.783 -6.829,-2.027 -47.985,-3.091 -46.913,-1.213 -50.588,-1.184 -66.671,0.528 -29.145,3.102 -41.7617,8.365 -50.9997,21.272 -2.2,3.074 -4.39,5.599 -4.866,5.61 -0.479,0.012 -0.525,-2.998 -0.102,-6.728 0.42,-3.712 0.856,-27.45 0.969,-52.75 l 0.205,-46 2.617,-9.5 c 8.36,-30.356 12.549,-41.935 24.4217,-67.5 14.754,-31.767 26.458,-53.368 39.282,-72.5 11.851,-17.681 53.436,-69.011 55.883,-68.979 0.874,0.011 6.976,0.909 13.559,1.994 30.799,5.079 84.115,8.443 121.819,7.687 41.094,-0.824 73.46,-5.269 118.605,-16.287 58.808,-14.353 73.112,-17.084 96.476,-18.419 31.046,-1.775 52.877,3.698 63.97,16.036 4.154,4.62 15.491,25.728 41.61,77.468 13.604,26.948 22.703,42.168 29.594,49.5 4.477,4.764 6.58,11.51 8.064,25.869 1.607,15.552 3.221,24.97 7.564,44.131 5.661,24.977 13.984,45.016 28.959,69.728 3.923,6.475 9.398,15.597 12.165,20.272 2.767,4.675 7.246,11.799 9.953,15.83 11.948,17.797 17.037,33.554 19.271,59.67 1.805,21.104 2.774,27.739 7.087,48.5 3.07,14.779 6.44,27.625 11.149,42.5 l 1.583,5 1.179,-5 c 1.751,-7.431 10.666,-25.583 17.903,-36.454 11.669,-17.527 31.449,-33.597 56.156,-45.622 18.955,-9.224 20.607,-9.541 36.043,-6.91 13.254,2.259 21.628,6.743 27.485,14.718 2.532,3.447 5.387,8.293 6.344,10.768 5.492,14.201 5.949,35.819 1.599,75.538 -1.624,14.829 -3.235,31.462 -3.579,36.962 -1.566,25.052 -5.806,50.686 -9.925,59.998 -4.117,9.31 -13.445,24.053 -19.356,30.592 -11.185,12.374 -34.321,27.466 -51.938,33.879 -5.253,1.912 -7.681,2.207 -15.211,1.847 -10.133,-0.484 -10.549,0.428 -1.893,4.151 6.421,2.762 15.438,2.99 22.855,0.577 15.295,-4.976 35.248,-17.314 49.256,-30.458 9.801,-9.197 22.982,-29.812 27.227,-42.583 2.59,-7.793 6.246,-31.45 7.495,-48.503 0.625,-8.525 2.507,-28.55 4.183,-44.5 2.617,-24.899 2.973,-31.475 2.514,-46.5 -0.321,-10.54 -1.169,-20.264 -2.131,-24.45 -2.487,-10.821 -7.634,-20.48 -14.655,-27.501 -6.957,-6.957 -9.206,-8.286 -20.377,-12.038 l -8.012,-2.691 -0.671,-45.41 c -0.369,-24.975 -1.159,-50.36 -1.755,-56.41 -0.596,-6.05 -1.779,-18.65 -2.628,-28 -3.098,-34.106 -9.83,-82.29 -15.089,-108 -1.35,-6.6 -2.896,-17.4 -3.434,-24 -2.743,-33.615 -9.275,-59.945 -25.04,-100.929 -6.954,-18.077 -13.181,-30.735 -23.505,-47.785 -6.37,-10.519 -8.099,-12.833 -21.361,-28.601 -10.744,-12.774 -15.987,-19.441 -24.226,-30.809 -17.015,-23.473 -30.39,-34.46 -66.807,-54.876 -34.834,-19.528 -56.429,-33.14 -60.285,-38 -8.845,-11.145 -18.255,-21.8322 -22.005,-24.9892 -2.307,-1.943 -7.258,-5.993 -11.003,-9.002 -18.121,-14.558 -63.512,-29.501 -94.693,-31.173 -25.386,-1.361 -58.195,7.834 -110.893,31.079 -5.717,2.522 -10.871,4.585 -11.453,4.585 -3.361,0 16.744,-16.684 28.022,-23.252 15.273,-8.896 45.936,-19.7 56.206,-19.806 3.091,-0.031 7.369,-0.369 9.507,-0.75 l 3.887,-0.692 -3.887,-1.92 c -10.314,-5.095 -51.158,-1.413 -75.691,6.822 -22.055,7.404 -44.371,23.471 -62.636,45.098 l -4.223,5 0.656,-9 c 1.578,-21.663 7.377,-34.844 22.28,-50.642 6.528,-6.921 20.047,-16.858 22.933,-16.858 1.255,0 1.309,-0.277 0.294,-1.5 -0.84,-1.012 -3.098,-1.5 -6.947,-1.5 -5.521,0 -10.031,1.259 -26.553,7.412 l -7,2.607 5,-4.65 c 7.977,-7.418 14.359,-11.212 24,-14.26398 7.142,-2.261 10.342,-2.766 15.5,-2.444 l 6.5,0.40399 -4,-2.20502 c -2.2,-1.213 -6.475,-2.795 -9.5,-3.517 -6.921,-1.650997 -27.047,-1.526983 -41,0.25202 z M 321.376,66.2508 c -2.087,2.887 -7.149,9.75 -11.249,15.25 -4.894,6.565 -9.849,14.98 -14.428,24.5002 -3.835,7.975 -10.481,19.966 -14.768,26.648 -4.286,6.681 -9.007,14.556 -10.491,17.5 -1.483,2.943 -3.643,6.692 -4.799,8.331 -1.157,1.638 -3.564,5.688 -5.349,9 -1.786,3.311 -3.257,5.7 -3.269,5.308 -0.092,-2.876 10.815,-29.643 18.454,-45.287 10.509,-21.522 18.333,-33.9702 29.54,-47.0002 7.655,-8.9 18.26,-19.5 19.508,-19.5 0.355,0 -1.062,2.363 -3.149,5.25 z m -39.442,4.447 c -1.261,2.092 -6.351,9.653 -11.31,16.803 -22.598,32.5812 -42.293,71.2512 -54.243,106.5002 -2.81,8.291 -2.889,8.401 -3.216,4.5 -0.62,-7.414 1.824,-24.912 5.341,-38.243 4.086,-15.485 4.45,-20.257 1.549,-20.257 -1.393,0 -2.996,1.998 -5.639,7.028 -2.031,3.865 -3.835,6.887 -4.008,6.714 -0.172,-0.173 0.44,-2.411 1.361,-4.973 0.922,-2.562 1.37,-4.964 0.996,-5.337 -1.581,-1.581 -3.743,0.984 -9.662,11.465 -3.449,6.107 -6.493,11.103 -6.765,11.103 -0.881,0 17.201,-34.403 24.238,-46.114 8.448,-14.063 25.261,-39.1742 29.381,-43.8862 2.236,-2.556 1.663,-1.207 -2.123,5 -2.851,4.675 -8.318,15.178 -12.149,23.3402 -5.883,12.533 -6.982,15.714 -7.075,20.468 -0.179,9.134 1.917,8.05 9.718,-5.024 8.985,-15.06 17.496,-26.7772 27.115,-37.3292 7.876,-8.64 17.378,-16.967 18.304,-16.042 0.265,0.265 -0.551,2.193 -1.813,4.284 z M 528,76.5388 c -2.475,0.772 -7.813,2.186 -11.862,3.142 -6.517,1.539 -9.432,3.36 -7.873,4.919 0.282,0.281 9.225,0.615 19.874,0.741 17.44,0.206 20.484,0.508 30.675,3.047 6.223,1.55 11.139,2.993 10.926,3.207 -0.214,0.214 -5.306,-0.094 -11.315,-0.683 -6.009,-0.59 -14.75,-0.792 -19.425,-0.449 -8.69,0.637 -29.045,5.475 -34.156,8.119 -2.973,1.5372 -3.831,4.8262 -1.493,5.7232 0.743,0.286 7.583,0.131 15.201,-0.343 8.254,-0.513 16.697,-0.485 20.899,0.069 8.181,1.08 23.625,4.965 31.549,7.937 l 5.5,2.063 -8,-0.517 c -4.4,-0.284 -12.275,-0.953 -17.5,-1.487 -18.335,-1.871 -70.082,2.675 -86.25,7.578 -6.554,1.988 8.037,-8.716 27.992,-20.5332 7.095,-4.202 8.323,-6.086 3.949,-6.056 -1.76,0.012 -14.756,4.083 -27.191,8.5182 l -2,0.713 2,-1.473 c 2.954,-2.1762 24.461,-13.2312 28.378,-14.5882 2.874,-0.996 3.19,-1.399 2.112,-2.697 -0.925,-1.115 -2.242,-1.349 -4.878,-0.867 -5.833,1.065 -23.225,7.361 -27.895,10.098 -5.307,3.11 -6.561,2.408 -1.964,-1.099 10.846,-8.272 39.587,-16.476 57.747,-16.483 l 9.5,-0.003 z M 273.974,108.218 c -5.586,9.474 -10.06,16.03 -10.584,15.507 -1.147,-1.147 7.21,-15.94 12.417,-21.98 3.187,-3.6962 2.285,-0.513 -1.833,6.473 z m 277.165,23.225 c 7.178,1.521 16.198,5.054 17.784,6.965 0.57,0.687 -3.734,-0.013 -10.219,-1.663 -10.753,-2.736 -11.948,-2.834 -29.704,-2.438 -18.044,0.403 -30.808,2.257 -46.344,6.732 -6.146,1.771 -5.231,0.523 2.093,-2.853 13.17,-6.07 51.295,-9.943 66.39,-6.743 z m -345.187,33.51 c -1.793,3.891 -3.463,6.87 -3.712,6.621 -0.249,-0.249 1.015,-3.635 2.808,-7.525 1.793,-3.891 3.463,-6.87 3.712,-6.621 0.249,0.249 -1.015,3.635 -2.808,7.525 z M 81.5483,349.251 c -8.554,16.295 -11.613,24.551 -17.685,47.75 -2.808,10.725 -5.4449,19.872 -5.8609,20.327 -0.416,0.456 -1.3211,-3.598 -2.0101,-9.007 -1.219,-9.561 -0.951,-14.249 1.662,-29.07 0.624,-3.541 -0.9359,-4.474 -2.5089,-1.5 -0.509,0.962 -2.1181,6.246 -3.5761,11.74 -2.881,10.865 -5.255,15.212 -4.1,7.51 1.064,-7.1 6.4301,-26.864 9.2311,-34 2.783,-7.094 4.799,-10.228 3.367,-5.235 -0.659,2.3 -0.5391,3.429 0.4549,4.253 1.084,0.9 2.0601,-0.409 4.9231,-6.606 1.964,-4.251 3.8329,-7.467 4.1539,-7.147 0.32,0.321 -0.351,4.272 -1.492,8.782 -1.14,4.509 -1.8159,8.616 -1.5009,9.125 0.652,1.055 3.3939,-0.878 3.3939,-2.393 0,-2.665 15.858,-26.779 17.61,-26.779 0.204,0 -2.524,5.513 -6.062,12.25 z m 11.9141,6.935 c -0.959,2.923 -3.7691,9.815 -6.2461,15.315 -2.477,5.5 -6.687,16.075 -9.356,23.5 -4.677,13.012 -5.685,12.388 -1.615,-1 4.107,-13.509 17.262,-44.826 18.366,-43.723 0.326,0.327 -0.1909,2.985 -1.1489,5.908 z M 567,558.553 c -0.825,0.176 -6.225,1.062 -12,1.968 -12.75,2.002 -45.733,10.397 -74.79,19.036 -6.44,1.915 -17.335,5.092 -24.21,7.06 -15.241,4.362 -31.456,10.273 -43.583,15.887 -8.355,3.868 -9.216,4.538 -10.75,8.371 -2.134,5.333 -2.107,6.127 0.499,15.126 4.334,14.962 10.205,19.72 25.494,20.663 11.509,0.71 27.166,-2.427 55.281,-11.077 48.477,-14.915 72.173,-20.233 100.798,-22.621 12.292,-1.025 13.821,-0.954 21.352,0.999 4.462,1.156 10.844,3.212 14.183,4.569 3.339,1.357 6.433,2.467 6.876,2.467 0.444,0 8.353,3.324 17.578,7.388 17.342,7.638 25.816,10.385 28.667,9.291 1.505,-0.578 1.517,-0.954 0.134,-4.264 -2.763,-6.613 -8.132,-12.686 -32.696,-36.987 -28.984,-28.673 -34.869,-33.05 -49.549,-36.854 -5.287,-1.37 -18.861,-1.966 -23.284,-1.022 z M 293.427,700.655 c -0.042,11.853 -0.774,27.317 -1.696,35.846 -0.893,8.25 -1.853,21.3 -2.135,29 -0.493,13.484 -0.46,13.797 0.898,8.5 0.776,-3.025 2.444,-12.25 3.707,-20.5 1.957,-12.773 2.288,-18.711 2.231,-40 -0.051,-18.858 -0.419,-26.068 -1.5,-29.346 -1.34,-4.066 -1.437,-3.002 -1.505,16.5 z m 213.066,-14.694 c -14.006,3.662 -19.94,6.013 -30.493,12.08 -10.894,6.263 -18.891,12.616 -23.969,19.04 -6.679,8.449 -4.95,10.503 3.469,4.122 19.79,-15.001 38.926,-24.491 57.891,-28.71 7.268,-1.617 7.449,-1.608 13.226,0.685 6.785,2.692 8.87,5.71 7.818,11.318 -1.396,7.439 -6.468,10.488 -17.467,10.499 -3.043,0.003 -7.993,-0.697 -11,-1.556 -8.196,-2.34 -9.417,-2.294 -9.795,0.37 -0.528,3.725 2.416,6.962 9.599,10.552 19.334,9.664 40.24,7.876 52.089,-4.455 5.851,-6.089 7.568,-14.412 4.579,-22.2 -1.171,-3.053 2.201,-1.93 16.894,5.626 13.767,7.079 20.666,10.106 20.666,9.067 0,-0.273 -0.661,-1.776 -1.47,-3.34 -1.857,-3.59 -6.862,-7.529 -17.03,-13.401 -15.109,-8.725 -31.394,-12.685 -51.881,-12.616 -10.047,0.034 -14.001,0.533 -23.126,2.919 z m -313.13,56.047 c -19.677,4.447 -38.897,14.597 -50.468,26.653 -6.588,6.863 -8.895,10.122 -8.895,12.563 0,3.022 2.368,1.988 7.538,-3.291 9.84,-10.05 28.147,-19.914 47.324,-25.497 10.538,-3.069 11.421,-3.047 15.247,0.371 3.839,3.43 4.109,7.261 0.766,10.844 -6.064,6.497 -17.052,9.023 -23.846,5.482 -2.25,-1.173 -4.704,-2.132 -5.453,-2.132 -2.494,0 -2.523,2.91 -0.057,5.84 3.759,4.467 11.611,7.357 21.536,7.925 14.982,0.858 26.066,-4.06 31.451,-13.954 2.285,-4.198 2.652,-5.89 2.272,-10.477 -0.452,-5.447 -0.443,-5.467 2.134,-4.899 1.423,0.313 6.995,2.819 12.382,5.567 5.387,2.749 10.449,4.998 11.25,4.998 4.863,0 -4.371,-11.072 -12.763,-15.305 -13.17,-6.642 -33.431,-8.526 -50.418,-4.688 z m 214.963,132.714 c 0.337,1.772 2.741,7.847 5.342,13.5 6.801,14.778 6.376,21.605 -1.833,29.478 -5.729,5.495 -11.462,7.338 -26.144,8.407 -15.471,1.125 -20.395,2.367 -35.191,8.874 -21.579,9.489 -29.404,10.459 -41.369,5.127 -10.615,-4.73 -22.629,-8.1 -29.057,-8.151 -8.824,-0.069 -15.092,-2.686 -17.861,-7.456 -1.996,-3.437 -2.257,-4.984 -1.863,-11 0.265,-4.031 1.611,-10.181 3.174,-14.5 4.997,-13.806 8.476,-24.088 8.476,-25.048 0,-0.524 -0.381,-0.952 -0.847,-0.952 -1.173,0 -12.602,24.287 -14.556,30.932 -4.205,14.301 -0.101,27.746 9.809,32.129 2.268,1.004 7.976,2.303 12.685,2.888 8.064,1.002 16.502,3.633 30.409,9.481 3.3,1.387 7.8,2.525 10,2.529 7.362,0.012 17.768,-2.887 28.43,-7.919 16.433,-7.756 21.031,-9.059 35.729,-10.128 19.499,-1.418 29.152,-5.382 35.147,-14.433 3.293,-4.972 4.822,-11.589 3.827,-16.565 -0.545,-2.723 -13.021,-28.705 -14.365,-29.914 -0.305,-0.275 -0.279,0.95 0.058,2.721 z M 517,1021.58 c -26.645,6.63 -56.093,10.73 -85.5,11.91 -16.063,0.64 -27.654,2.43 -38.816,5.98 -9.104,2.89 -30.321,7.13 -39.684,7.92 -3.575,0.31 -13.475,0.82 -22,1.15 -8.525,0.32 -18.644,1.29 -22.487,2.16 -6.805,1.53 -10.065,2.64 -28.25,9.65 -4.82,1.86 -15.063,4.63 -22.763,6.16 -7.7,1.52 -14.654,3.38 -15.454,4.12 -1.254,1.16 -0.772,1.99 3.5,6.01 7.457,7.02 20.083,16.15 27.421,19.84 19.34,9.71 46.005,14.78 77.533,14.73 21.872,-0.03 44.322,-2.96 67.122,-8.75 16.966,-4.31 24.961,-7.45 47.974,-18.84 23.723,-11.75 32.639,-17.64 55.202,-36.51 15.383,-12.86 18.424,-15.86 20.654,-20.42 1.477,-3.02 2.337,-6.08 1.975,-7.02 -1.017,-2.65 -10.99,-1.93 -26.427,1.91 z m -8.307,17.19 c 0.873,4.43 1.328,8.73 1.011,9.56 -0.913,2.38 -18.342,15.83 -27.942,21.57 -12.676,7.57 -35.504,18.29 -48.762,22.88 -13.448,4.66 -40.788,11 -52.978,12.29 -13.51,1.42 -47.005,1.1 -61.482,-0.59 -14.664,-1.72 -28.364,-4.74 -36.53,-8.06 -5.478,-2.22 -5.493,-2.24 -6.706,-8.07 -0.669,-3.22 -1.236,-8.8 -1.26,-12.41 l -0.044,-6.56 12.251,-4.72 c 17.164,-6.63 25.175,-8.5 41.249,-9.63 32.995,-2.34 50.095,-5.13 70.58,-11.52 8.823,-2.76 26.866,-4.98 52.92,-6.52 19.909,-1.18 35.948,-3.19 47.352,-5.94 3.931,-0.94 7.509,-1.41 7.951,-1.03 0.441,0.38 1.517,4.31 2.39,8.75 z M 405.5,1139.57 c -22.518,2.77 -31.061,3.43 -44.665,3.43 -8.13,0 -13.718,0.38 -13.39,0.91 1.237,2 15.097,3.36 27.555,2.69 16.07,-0.85 41.159,-4.08 44.142,-5.68 2.23,-1.19 2.242,-1.26 0.336,-2.01 -1.088,-0.42 -2.203,-0.75 -2.478,-0.73 -0.275,0.02 -5.45,0.65 -11.5,1.39 z"
         fill="#000000"
         id="path1" /></g></g></svg>
